<svg width="1200" height="800" viewBox="0 0 1200 800" fill="none" xmlns="http://www.w3.org/2000/svg">
  <defs>
    <linearGradient id="gradient-bg-ai" x1="0" y1="0" x2="1" y2="1">
      <stop offset="0%" stop-color="#4C1D95"/>
      <stop offset="50%" stop-color="#4338CA"/>
      <stop offset="100%" stop-color="#0EA5E9"/>
    </linearGradient>
    <linearGradient id="gradient-node-ai" x1="0" y1="0" x2="1" y2="1">
      <stop offset="0%" stop-color="#F9FAFB" stop-opacity="0.85"/>
      <stop offset="100%" stop-color="#E0F2FE" stop-opacity="0.65"/>
    </linearGradient>
    <radialGradient id="glow-ai" cx="0.5" cy="0.5" r="0.75">
      <stop offset="0%" stop-color="#F8FAFC" stop-opacity="0.9"/>
      <stop offset="100%" stop-color="#38BDF8" stop-opacity="0"/>
    </radialGradient>
  </defs>
  <rect width="1200" height="800" fill="url(#gradient-bg-ai)"/>
  <circle cx="300" cy="250" r="180" fill="url(#glow-ai)" opacity="0.35"/>
  <circle cx="900" cy="550" r="220" fill="url(#glow-ai)" opacity="0.3"/>
  <g opacity="0.4">
    <path d="M240 200C320 160 420 160 500 200C580 240 680 240 760 200C840 160 940 160 1020 200" stroke="#E0F2FE" stroke-width="3" stroke-linecap="round"/>
    <path d="M240 360C320 320 420 320 500 360C580 400 680 400 760 360C840 320 940 320 1020 360" stroke="#E0F2FE" stroke-width="3" stroke-linecap="round"/>
    <path d="M240 520C320 480 420 480 500 520C580 560 680 560 760 520C840 480 940 480 1020 520" stroke="#E0F2FE" stroke-width="3" stroke-linecap="round"/>
  </g>
  <rect x="360" y="240" width="480" height="280" rx="32" fill="rgba(15, 23, 42, 0.25)" opacity="0.35"/>
  <rect x="380" y="260" width="440" height="240" rx="28" fill="#0F172A" opacity="0.35"/>
  <g>
    <circle cx="600" cy="400" r="150" fill="url(#gradient-node-ai)" opacity="0.9"/>
    <circle cx="600" cy="400" r="110" stroke="#0EA5E9" stroke-width="6" opacity="0.7"/>
    <circle cx="520" cy="330" r="24" fill="#0EA5E9"/>
    <circle cx="680" cy="340" r="20" fill="#38BDF8"/>
    <circle cx="560" cy="470" r="18" fill="#38BDF8"/>
    <circle cx="660" cy="470" r="22" fill="#0EA5E9"/>
    <path d="M520 330L600 400L680 340L660 470L560 470L520 330Z" stroke="#0EA5E9" stroke-width="6" stroke-linejoin="round" fill="none" opacity="0.6"/>
  </g>
  <g opacity="0.3">
    <circle cx="180" cy="650" r="48" stroke="#E0F2FE" stroke-width="4" stroke-dasharray="12 16"/>
    <circle cx="1020" cy="180" r="56" stroke="#E0F2FE" stroke-width="4" stroke-dasharray="10 20"/>
    <rect x="950" y="610" width="140" height="80" rx="18" stroke="#E0F2FE" stroke-width="3" stroke-dasharray="14 18"/>
  </g>
</svg>
